<svg xmlns="http://www.w3.org/2000/svg" version="1.1" width="1000" height="1000"><rect width="1000" height="1000" rx="200" ry="200" fill="#75ff8c"></rect><g transform="matrix(7.619047619047619,0,0,7.619047619047619,100.00598419013079,176.20605499204248)">
    <svg xmlns="http://www.w3.org/2000/svg" version="1.1"
         width="105" height="85"><svg width="105" height="85" viewBox="0 0 105 85" fill="none" xmlns="http://www.w3.org/2000/svg">
<g clip-path="url(#clip0_13_3)">
<path d="M35.7256 0.185694C35.5239 0.316142 34.9331 0.794099 34.4152 1.24353C33.8963 1.67772 33.3206 2.14143 33.1474 2.2576C32.7657 2.51469 32.4002 2.79518 32.0529 3.09744C31.5794 3.48878 27.6596 6.02348 27.5299 6.02348C27.5099 6.02206 27.4899 6.02474 27.471 6.03133C27.4521 6.03791 27.4348 6.04825 27.42 6.06178C27.4052 6.07531 27.3933 6.09172 27.385 6.11002C27.3767 6.12831 27.3722 6.14815 27.3718 6.16825C27.3691 6.20576 27.3531 6.24104 27.3267 6.26763C27.3002 6.29422 27.2651 6.3103 27.2278 6.31296C26.4195 6.74191 25.6356 7.21585 24.8797 7.73263C23.6839 8.51532 22.6471 9.16666 22.5751 9.18094C22.4206 9.24268 22.2753 9.32565 22.1434 9.42753C21.8698 9.60178 21.7978 9.78936 21.7647 10.355C21.7225 10.6635 21.7778 10.9776 21.9228 11.2528C22.4768 12.1753 22.9492 13.1448 23.3345 14.1504C23.3345 14.2227 23.4064 14.2808 23.5078 14.2808C23.5939 14.2808 23.6233 14.3246 23.5797 14.3674C23.522 14.4255 23.6081 14.6426 23.7691 14.8597C23.8817 15.0069 23.977 15.1667 24.0531 15.3358C24.5381 16.2602 25.092 17.1464 25.7101 17.9867C25.8064 18.0797 25.8803 18.1937 25.9259 18.3199C25.9259 18.4942 26.5168 19.0874 27.0063 19.4359C27.6975 19.8996 28.2883 19.7691 29.628 18.8274C30.608 18.1466 30.5645 18.1323 31.143 19.2769C31.3446 19.6682 31.7196 20.3633 31.9638 20.8003C32.2233 21.2345 32.4969 21.7525 32.5973 21.9592C32.6575 22.1182 32.7453 22.2652 32.8567 22.3933C32.9003 22.4371 33.4901 23.536 34.1671 24.8557C34.8441 26.1754 35.5211 27.4779 35.6943 27.7531C35.8525 28.0283 36.1261 28.5206 36.2852 28.8396C36.5363 29.3144 36.8151 29.7738 37.1203 30.2155C37.3175 30.4415 37.4656 30.7065 37.555 30.9935C37.6443 31.2804 37.673 31.583 37.6391 31.8818C37.6299 32.829 37.5432 33.774 37.3797 34.7069C37.3361 34.9097 37.2784 35.2573 37.2358 35.5039C37.1922 35.8952 36.3571 39.9658 36.2132 40.5019C36.1848 40.618 35.9396 41.6026 35.6659 42.6747C35.2123 44.0501 35.0551 45.5069 35.2048 46.9481C35.2768 47.2956 35.5504 47.528 36.4433 48.0907C38.6042 49.3411 40.8358 50.4634 43.1269 51.4519C44.0917 51.7852 44.8558 51.6109 46.5554 50.6987C46.7783 50.5799 47.024 50.5107 47.2759 50.4959C47.4866 50.4793 47.6898 50.4095 47.8667 50.2931C48.4299 49.2125 48.9067 48.0886 49.2926 46.9319C49.6683 45.8376 50.1009 44.764 50.5888 43.7155C50.627 43.6841 50.6573 43.6441 50.6774 43.5988C50.6974 43.5535 50.7066 43.5041 50.7043 43.4546C50.7573 43.1941 50.8533 42.9443 50.9884 42.7157C51.118 42.4896 51.2138 42.2453 51.2724 41.9911C51.2689 41.947 51.2816 41.9033 51.3081 41.8681C51.3347 41.833 51.3732 41.809 51.4164 41.8007C51.5025 41.8007 51.5603 41.714 51.5603 41.6102C51.9976 40.463 52.5363 39.3576 53.1699 38.3071C53.2418 38.2633 53.2996 38.1767 53.2854 38.1167C53.3557 37.7705 53.5033 37.4449 53.7171 37.1645C53.8987 37.4678 54.0391 37.7941 54.1347 38.1347C54.4945 39.2069 55.4886 41.8578 55.82 42.669C55.9092 42.8564 55.9677 43.057 55.9933 43.2632C55.9649 43.3212 56.0511 43.4803 56.1666 43.625C56.3486 43.8875 56.4894 44.1765 56.5841 44.482C56.7858 45.1047 57.9816 47.9155 58.2259 48.3935C58.2971 48.5071 58.3552 48.6285 58.3992 48.7553C58.7949 49.6944 59.3133 50.5763 59.9406 51.3777C60.8051 51.9861 61.2084 52.0146 62.8758 51.5947C63.7402 51.3776 64.6047 51.1605 64.8064 51.131C66.4617 50.8595 68.0713 50.3573 69.5888 49.639C69.8154 49.2903 69.9355 48.8825 69.9344 48.4659C70.0347 47.4804 70.0783 40.7304 70.0063 35.4134C69.9628 32.5569 69.9779 32.2265 70.2222 31.7952C70.3375 31.5812 70.4776 31.3817 70.6397 31.201C70.741 31.1286 70.741 31.0848 70.6397 31.0848C70.5384 31.0848 70.5384 31.041 70.6397 30.9686C70.7643 30.8587 70.8668 30.7259 70.9418 30.5773C71.5904 29.389 72.0221 28.6358 72.843 27.2447C73.3619 26.361 73.8514 25.5784 73.9091 25.506C74.1828 25.187 76.2279 21.9829 76.5744 21.3631C76.9058 20.7261 77.0478 20.6385 78.5912 19.9148C80.4498 19.0455 80.5644 18.9293 81.7157 16.6555C82.6227 14.8588 83.099 13.3229 82.8973 12.8744C81.859 11.9808 80.7235 11.2081 79.5124 10.5711C79.1487 10.4321 78.7927 10.2732 78.4463 10.095C77.899 9.84838 76.6597 9.34182 75.6664 8.99427C74.8397 8.59589 73.9319 8.3973 73.0153 8.41439C71.9208 8.48675 71.7617 8.58868 70.8982 9.60275C70.6571 9.91738 70.3921 10.2128 70.1057 10.4864C70.0705 10.5038 70.041 10.531 70.0205 10.5648C70.0001 10.5985 69.9896 10.6373 69.9902 10.6768C69.9704 10.7938 69.9209 10.9037 69.8463 10.9957C69.6569 11.1986 68.694 12.5316 68.4488 12.922C68.3475 13.0667 68.1174 13.4295 67.9299 13.7047C67.7567 13.9799 67.2813 14.7331 66.8884 15.371C66.4955 16.009 66.1395 16.5593 66.0959 16.6022C65.9876 16.7479 65.8926 16.9031 65.8119 17.0659C65.6964 17.283 65.2069 18.0943 64.7315 18.875C64.2562 19.6558 63.7847 20.4537 63.6796 20.6565C63.478 21.0622 63.3766 21.2507 62.1818 23.3655C61.8613 23.882 61.582 24.4233 61.3467 24.9842C61.3499 25.0225 61.3381 25.0605 61.3139 25.0902C61.2897 25.1199 61.2549 25.1389 61.2169 25.1432C61.1014 25.1432 60.9869 25.4908 60.7274 26.6934C60.6413 27.0847 60.5116 26.9981 60.2957 26.4182C60.166 26.0706 59.9785 25.5926 59.8923 25.3603C59.792 25.1137 59.703 24.8966 59.6907 24.8538C59.6784 24.8109 59.5609 24.5348 59.4312 24.2167C59.3015 23.912 59.186 23.6369 59.186 23.6083C59.137 23.4553 59.0791 23.3052 59.0127 23.1589C58.939 22.9793 58.8758 22.7956 58.8234 22.6086C58.6463 21.9207 58.405 21.2512 58.1028 20.6089C57.9243 20.4277 57.6914 20.3106 57.4401 20.2757C56.3313 20.1167 54.8619 19.9901 52.8593 19.8558C52.1246 19.7977 51.3756 19.7253 51.2024 19.6967C51.0443 19.6682 50.569 19.5949 50.1609 19.552C49.4697 19.4654 49.3684 19.494 48.9944 19.871C48.7268 20.1538 48.4903 20.4647 48.289 20.7985C48.1889 21.0005 48.0734 21.1944 47.9434 21.3783C47.8998 21.4221 47.5836 22.0591 47.2229 22.7837C47.0288 23.2619 46.7773 23.7144 46.4739 24.1311C46.4162 24.1311 46.3158 23.9568 46.2723 23.7254C46.1521 23.3359 46.0079 22.9543 45.8405 22.5828C45.6672 22.1772 45.5565 21.8001 45.6104 21.7573C45.654 21.7135 45.6104 21.6706 45.5243 21.6706C45.4728 21.6646 45.4257 21.6385 45.3933 21.5978C45.3609 21.5572 45.3457 21.5054 45.351 21.4535C45.3391 21.286 45.29 21.1233 45.2071 20.9775C45.1351 20.847 44.8037 20.0072 44.4723 19.1378C44.141 18.2542 43.767 17.3125 43.6515 17.0373C43.5638 16.8486 43.487 16.655 43.4214 16.4575C43.4072 16.3708 43.0616 15.5158 42.8164 14.934C42.0816 13.181 41.6925 12.2679 41.1017 10.8054C40.7229 9.89317 40.3385 8.93623 40.2372 8.70485C40.1359 8.45824 39.9342 7.9802 39.8055 7.61837C39.6615 7.25654 39.4741 6.76142 39.3737 6.53194C39.2733 6.28533 39.1436 5.93781 39.0896 5.73499C39.0461 5.53218 38.816 4.78281 38.585 4.06868C38.3549 3.34407 38.0661 2.38807 37.9364 1.92436C37.8347 1.50942 37.6424 1.12248 37.3733 0.791731C37.1042 0.460984 36.7651 0.194758 36.3808 0.0123907C36.1487 -0.0117428 35.9158 0.0498595 35.7256 0.185694Z" fill="#2C2E3E" />
<path d="M7.99502 49.4838C7.13057 49.6285 5.92053 49.7875 5.32971 49.8313C3.87444 49.9475 2.70795 50.0627 2.44852 50.117C2.33301 50.1312 1.91546 50.2036 1.51211 50.276C0.806727 50.3769 -0.00280762 50.7102 -0.00280762 50.8701C0.197004 51.2533 0.438674 51.6129 0.717726 51.9423C1.14948 52.3336 4.44821 56.6651 5.51434 58.2438L6.8825 60.2577L6.68083 60.7652C6.27754 61.5547 5.76317 62.2818 5.1536 62.9237C5.11899 62.9451 5.09028 62.9749 5.07009 63.0103C5.04991 63.0458 5.0389 63.0857 5.03809 63.1266C4.65531 63.7206 4.23168 64.2869 3.77029 64.8214C3.07911 65.6613 2.34437 66.5887 2.1427 66.8639C1.39376 67.9112 1.16273 69.0224 1.60963 69.4281C1.83971 69.6452 1.99878 69.6309 3.69833 69.211C4.7209 68.9796 5.83058 68.7349 6.19037 68.6892C7.2895 68.5498 8.39644 68.4821 9.50426 68.4864C9.50426 68.5883 8.66916 70.9201 8.51009 71.282C8.28001 71.7895 7.7176 73.3101 7.68919 73.4548C7.58987 73.7717 7.46967 74.0815 7.3294 74.3822C7.06997 75.0193 7.04535 75.2078 7.18548 75.4401C7.28679 75.5992 7.48752 75.9762 7.64659 76.28C7.89181 76.756 8.06414 76.8741 9.0441 77.2321C9.64912 77.4635 10.1964 77.652 10.2683 77.6663C10.3175 77.6768 10.3656 77.6915 10.4123 77.7101C10.4265 77.7244 11.4784 78.091 12.7462 78.5071C14.9362 79.246 15.065 79.2746 15.2382 79.0146C15.3537 78.8699 15.5554 78.609 15.7116 78.4347C15.8382 78.2994 15.9319 78.1365 15.9853 77.9586C15.9995 77.872 16.0866 78.0167 16.2153 78.2919C16.3309 78.5671 16.3886 78.8137 16.3451 78.8565C16.3569 79.0285 16.417 79.1936 16.5183 79.3326C16.7778 79.7668 17.0514 79.8973 18.2226 80.202C18.5185 80.2607 18.808 80.3481 19.0871 80.4629C19.2016 80.5135 19.3228 80.5475 19.4469 80.5638C19.5942 80.5717 19.7396 80.6008 19.8786 80.6504C20.0945 80.7371 21.8518 81.1722 22.9179 81.4179C23.0979 81.4512 23.2759 81.4947 23.451 81.5483C23.5807 81.5921 23.8543 81.6502 24.056 81.6931C24.2577 81.7216 24.8769 81.8673 25.4242 81.9968C26.5187 82.2577 26.548 82.272 27.5129 82.4463C27.8727 82.5044 28.1898 82.5624 28.2334 82.5767C28.4493 82.6348 29.6451 82.8376 29.8903 82.8624C30.0485 82.8909 30.5673 82.9785 31.0426 83.0528C31.516 83.1395 32.1371 83.2556 32.4108 83.2994C34.1681 83.6032 34.4711 83.5308 35.5514 82.5024C35.7709 82.2727 36.0233 82.0772 36.3003 81.9226C36.3723 81.9226 36.574 82.1254 36.7472 82.372C37.7698 83.8203 38.3464 84.125 40.5506 84.3135C40.954 84.3573 41.6603 84.4144 42.1356 84.4725C43.0001 84.5449 43.3021 84.5734 46.0971 84.7334C50.159 84.98 59.6812 85.0667 62.5908 84.9076C64.9967 84.7629 66.9121 84.6467 67.4887 84.6029C68.2235 84.5591 70.2402 84.3716 70.8026 84.3173C71.0478 84.2887 71.7248 84.2306 72.3175 84.1868C72.9083 84.1287 73.5418 84.0564 73.715 84.0278C74.0171 83.9555 74.7812 83.8536 75.7753 83.7231C76.9712 83.5784 77.0867 83.5641 79.3733 83.1433C80.036 83.0128 80.785 82.8966 81.0302 82.8576C81.4379 82.8287 81.84 82.7458 82.2261 82.611C82.4194 82.5298 82.623 82.4763 82.8311 82.452C83.1047 82.4082 83.4939 82.3358 83.6955 82.293C83.8972 82.2349 84.2286 82.1768 84.4445 82.134C84.6603 82.0911 85.7549 81.8007 86.893 81.4817C88.031 81.1627 89.0536 80.8733 89.1653 80.859C89.3145 80.8356 89.4598 80.7917 89.5971 80.7285C89.7126 80.6847 90.6916 80.3477 91.7577 79.9896C95.0565 78.8889 94.7828 79.0479 95.3879 77.9177C95.6276 77.4717 95.83 77.0064 95.9929 76.5266C96.0506 76.2076 95.8196 75.4982 95.0707 73.7453C94.723 72.8174 94.4532 71.8619 94.264 70.8887C94.0746 69.788 93.9184 68.8025 93.9184 68.614C93.9184 68.455 94.264 68.4235 95.9787 68.5121C97.8028 68.5315 99.6173 68.7797 101.38 69.251C102.965 69.6709 103.051 69.6852 103.325 69.3957C103.609 69.11 103.498 68.2655 103.041 67.4114C102.153 66.0844 101.186 64.8126 100.146 63.6027C99.425 62.7541 98.7882 61.8369 98.2444 60.8642L97.985 60.2843L98.4319 59.6321C98.6913 59.2702 98.9214 58.9075 98.965 58.8208C99.0511 58.6304 100.161 56.9669 100.261 56.865C100.305 56.8212 100.621 56.4013 100.982 55.9233C101.543 55.1559 103.704 52.4469 104.655 51.3167L105.001 50.9254L104.684 50.7083C104.035 50.4141 103.345 50.2236 102.639 50.1436C102.409 50.0998 101.716 50.0274 101.124 49.9846C100.531 49.9418 99.784 49.8684 99.4668 49.8256C99.1496 49.797 98.5739 49.7237 98.1706 49.6809C97.7814 49.6371 97.3639 49.579 97.2635 49.5504C95.9473 49.3141 94.6099 49.2183 93.2736 49.2647C91.415 49.2647 91.2285 49.2933 90.9255 49.5685C90.7513 49.7388 90.6182 49.9469 90.5363 50.1769C90.495 50.3719 90.4315 50.5613 90.347 50.7416C89.9889 51.8326 89.7852 52.9689 89.7419 54.1171C89.7419 55.1026 89.8139 55.0588 87.4374 55.6405C85.5646 56.1043 85.1035 56.3213 84.8298 56.8288C84.5295 57.3529 84.1277 57.8111 83.6482 58.1762C83.5478 57.9985 83.4886 57.8002 83.4749 57.5963C83.4492 57.3505 83.3597 57.1157 83.2155 56.9155C82.1716 56.7966 81.1153 56.8555 80.091 57.0898C78.3432 57.3999 76.577 57.5936 74.8039 57.6696C74.4067 57.6745 74.011 57.7182 73.6223 57.8001C73.1905 58.0753 58.0214 58.1914 51.4959 57.9905C49.839 57.9324 47.4624 57.8601 46.2382 57.8163C45.014 57.7725 43.5587 57.7144 42.9972 57.6715C42.45 57.643 41.2106 57.5696 40.26 57.5268C39.3093 57.4839 38.2148 57.4106 37.8115 57.3678C37.4223 57.324 36.573 57.2659 35.9386 57.223C35.3052 57.1945 34.4114 57.1364 33.9361 57.0926C33.0139 57.0202 31.3428 56.8898 30.1043 56.807C29.6726 56.7784 29.1395 56.7203 28.9227 56.6765C28.5182 56.5982 28.1094 56.5451 27.6984 56.5175C27.2373 56.4889 26.7336 56.4308 26.5746 56.4013C26.0979 56.3207 25.6171 56.2677 25.1344 56.2423C24.501 56.1842 23.8808 56.1119 23.7663 56.0833C23.5646 56.0252 21.3746 55.6196 20.6692 55.5034C20.0358 55.4025 19.3588 55.272 19.1543 55.2178C19.0388 55.1892 18.7756 55.1311 18.5777 55.0873C17.3676 54.856 15.3651 54.4065 15.2505 54.3341C15.1462 54.1709 15.1004 53.9767 15.1208 53.7838C15.0704 53.0449 14.9547 52.312 14.7752 51.5938C14.6204 50.8678 14.3268 50.179 13.9108 49.5656C13.6513 49.3047 13.4071 49.28 11.592 49.2609C10.389 49.2397 9.1863 49.3142 7.99502 49.4838ZM19.9373 60.2767C20.1532 60.4357 20.3265 61.0156 20.6285 62.4791C20.8586 63.5798 21.0602 64.5796 21.1019 64.6957C21.4049 65.9412 21.8944 68.0712 21.9806 68.5349C22.0153 68.7765 22.0733 69.0141 22.1538 69.2443C22.1822 69.3024 22.471 68.8825 22.7731 68.3026C23.4216 67.0572 23.5655 66.9115 24.1128 66.8105C24.6601 66.7096 24.8333 66.9124 25.5103 68.5054C25.8275 69.23 26.1731 70.0413 26.2886 70.2727C26.389 70.5193 26.5622 70.8954 26.6484 71.1296C26.8378 71.6514 26.9656 71.521 27.297 70.4926C27.4409 70.0584 27.9598 68.7111 28.4493 67.5228C28.9388 66.3202 29.5154 64.8719 29.7455 64.292C30.2643 62.9447 30.6241 62.6409 31.5321 62.7562C32.7422 62.9009 32.9003 62.9466 33.1739 63.2323C33.7505 63.8121 33.0158 64.7243 32.0377 64.6519C31.6486 64.6234 31.606 64.6805 31.1733 65.8545C30.9281 66.5354 30.395 67.897 29.9774 68.8968C29.5599 69.8965 29.1992 70.8087 29.1707 70.9249C29.0126 71.5333 27.9465 74.5432 27.7155 75.0097C27.0385 76.4294 26.1163 75.6763 25.1373 72.9378C24.3164 70.6202 24.1289 70.1708 24.0134 70.1851C23.6601 70.6828 23.3608 71.2172 23.1205 71.779C22.3422 73.373 22.0686 73.6767 21.4352 73.6767C21.118 73.6767 20.4704 73.2273 20.441 72.9816C20.4295 72.8492 20.4054 72.7181 20.3691 72.5903C20.3407 72.4312 20.2829 72.0399 20.2394 71.7209C20.1958 71.4019 20.0954 70.7792 20.0235 70.345C19.9515 69.9108 19.8502 69.2976 19.7934 68.9834C19.7498 68.6797 19.6779 68.2883 19.6495 68.1141C19.6211 67.9551 19.5482 67.578 19.5056 67.3028C19.4566 66.9852 19.3893 66.6708 19.3039 66.3611C19.0569 65.2499 18.8933 64.1215 18.8144 62.9856C18.8002 62.8114 18.7424 62.6667 18.6563 62.6667C18.5265 62.6667 18.3542 62.7971 17.504 63.5065C17.337 63.5764 17.1548 63.6011 16.9754 63.5782C16.796 63.5554 16.6257 63.4856 16.4814 63.376C15.9048 62.8999 16.2513 61.9125 17.2597 61.2031C18.9289 60.0596 19.4185 59.8853 19.9373 60.2767ZM86.3883 63.6226C86.4922 63.7678 86.5574 63.9373 86.5777 64.1149C86.1284 65.1471 85.5629 66.1241 84.8923 67.0267C84.8108 67.1292 84.7072 67.2116 84.5893 67.2679C84.4714 67.3241 84.3423 67.3526 84.2119 67.3512C84.0814 67.3499 83.9529 67.3186 83.8363 67.2599C83.7196 67.2012 83.6177 67.1166 83.5384 67.0124C83.1786 66.6506 83.1492 66.563 83.2647 66.1288C83.3509 65.8536 83.4086 65.6213 83.4086 65.607C83.4086 65.4908 82.5016 65.7974 82.0111 66.0831C81.0889 66.6191 80.0806 67.995 80.571 68.0388C80.6714 68.0531 80.9497 68.0826 81.176 68.1112C81.4212 68.1255 81.9392 68.1836 82.3283 68.2274C82.9388 68.2342 83.5412 68.3692 84.0969 68.6236C84.6525 68.8781 85.1492 69.2465 85.5551 69.7052C86.0467 70.251 86.3762 70.9247 86.506 71.6494C86.6359 72.3742 86.561 73.1211 86.2898 73.8052C85.7587 74.7943 84.9036 75.568 83.8697 75.9952C82.9619 76.3306 81.9825 76.4206 81.0293 76.2562C80.7992 76.1838 80.5398 76.1114 80.4527 76.0971C80.353 76.0656 80.2576 76.0217 80.1686 75.9667C79.9541 75.8825 79.7322 75.8188 79.5058 75.7763C78.8724 75.6601 78.7133 75.3706 78.6707 74.2118C78.6272 73.1978 78.8724 72.734 79.5494 72.5931C79.9385 72.5065 80.054 72.5493 80.3419 72.8683C80.5224 73.0708 80.6379 73.3233 80.6733 73.5929C80.6733 73.8538 80.7888 73.9405 81.3644 74.0852C82.9494 74.5051 84.5628 73.6357 84.5628 72.3712C84.5486 72.0096 84.4449 71.6573 84.2611 71.3462C84.0772 71.0351 83.819 70.7751 83.5099 70.5897C82.6976 70.2728 81.8312 70.1201 80.9602 70.1403C79.6782 70.0384 79.0731 69.8356 78.6698 69.3148C77.6614 68.0112 79.1593 65.3156 81.5103 64.2158C82.3932 63.7685 83.4107 63.6704 84.3621 63.9407C84.5638 64.0568 84.7077 63.9988 85.0249 63.6798C85.4803 63.217 86.0711 63.1885 86.3883 63.6226ZM38.2461 65.5784C38.39 65.9983 38.2896 66.303 37.339 68.3312C36.8656 69.3167 36.3448 70.5478 36.1725 71.0687C36.0536 71.4562 35.895 71.8302 35.6991 72.1846C35.6129 72.2865 35.5836 72.3751 35.6271 72.3751C35.3613 73.3725 34.98 74.3351 34.491 75.243C33.9579 76.1409 33.0073 76.5037 32.6323 75.9381C32.5102 75.6881 32.4395 75.4158 32.4247 75.1376C32.4099 74.8594 32.4512 74.5811 32.5462 74.3194C32.8026 73.8589 33.0242 73.3795 33.209 72.8854C33.493 72.1608 33.8424 71.3791 33.9579 71.1182C34.1596 70.684 34.1473 70.6259 33.4248 69.2348C31.8152 66.164 31.8692 66.3373 32.2886 65.8012C32.8501 65.0919 33.3832 65.3089 34.2041 66.5687C34.5497 67.0905 34.9672 67.6694 35.1263 67.8579L35.4293 68.1912L35.6025 67.8579C35.6702 67.7114 35.7575 67.575 35.862 67.4523C36.0401 67.2317 36.2037 66.9995 36.3515 66.7572C37.1799 65.4632 38.0444 64.9271 38.2461 65.5784ZM53.4899 65.8393C53.5477 65.8393 53.7058 66.0859 53.8213 66.3611C54.0372 66.8829 54.023 68.1702 53.7929 72.8797C53.7494 73.8319 53.6926 74.9517 53.6774 75.3716C53.6339 76.2838 53.3176 76.7189 52.669 76.7189C52.0782 76.7189 51.9921 76.6323 51.5168 75.7048C51.2867 75.2706 50.9259 74.6327 50.6959 74.2851C50.5354 74.062 50.3956 73.8246 50.2783 73.5758C50.2418 73.4527 50.172 73.3422 50.0766 73.2568C49.7855 72.822 49.5255 72.367 49.2983 71.8952C49.1399 71.5266 48.9262 71.1846 48.6649 70.8811C48.6325 71.2811 48.6278 71.683 48.6507 72.0837C48.7946 76.0238 48.7369 76.5018 48.0457 76.7922C47.2826 77.1112 46.7495 76.6332 46.6056 75.5173C46.4511 73.2285 46.4992 70.9304 46.7495 68.6501C46.7851 68.4541 46.8044 68.2553 46.8072 68.056C46.8721 67.7668 47.0226 67.5042 47.239 67.3028C47.9453 66.5925 48.5645 66.922 49.3419 68.4178C49.9411 69.5491 50.6452 70.6209 51.4448 71.619C51.4872 71.6439 51.5218 71.6801 51.5447 71.7237C51.5677 71.7673 51.578 71.8165 51.5745 71.8657C51.5938 71.9967 51.6614 72.1157 51.7639 72.1989C51.8936 72.3151 51.9532 71.938 51.9797 70.3736C52.0754 65.9698 52.1899 65.6222 53.4871 65.8393H53.4899ZM45.4514 66.6791C45.5953 67.1552 45.5953 67.3162 45.4656 68.8235C45.1815 72.1989 45.12 73.1083 45.1058 74.9517C45.0916 76.1686 45.0622 76.3276 44.746 76.6465C44.0255 77.3712 43.2623 76.837 42.556 75.1402C41.9207 73.6613 41.1934 72.2242 40.3783 70.8373C40.3165 71.1331 40.2779 71.4333 40.2628 71.7352C40.2003 72.7121 40.0802 73.6844 39.903 74.647C39.8788 74.693 39.8594 74.7416 39.8452 74.7917C39.7887 75.0142 39.654 75.2087 39.4661 75.3392C39.2781 75.4697 39.0496 75.5276 38.8227 75.502C38.0302 75.4878 37.7423 74.9374 37.9005 73.7205C37.9816 72.7329 38.121 71.7511 38.318 70.7802C38.39 70.505 38.4761 69.9546 38.5339 69.5633C38.5579 69.2891 38.6061 69.0176 38.6778 68.752C38.7426 68.5142 38.7907 68.2721 38.8217 68.0274C39.0234 66.6801 39.7686 66.0431 40.3366 66.7524C40.7307 67.19 41.0431 67.6955 41.2589 68.2445C41.4889 68.7206 41.9216 69.5052 42.2057 69.9832C42.4897 70.4755 42.7823 70.9687 42.8391 71.0696C42.8969 71.1858 43.0285 71.4505 43.1411 71.6495C43.3428 72.0113 43.357 71.9971 43.3712 71.3639C43.3937 69.8145 43.5381 68.2694 43.803 66.7429C43.9135 66.5063 44.0703 66.2945 44.2641 66.1202C44.5377 65.9174 44.6239 65.9031 44.9553 66.0764C45.1859 66.212 45.3605 66.4261 45.4476 66.6801L45.4514 66.6791ZM69.5803 66.0564C69.9978 66.2011 70.1569 66.3897 70.1569 66.8096C70.1569 67.2857 69.6835 67.6066 68.8029 67.6932L67.982 67.7799L68.0682 69.5328C68.1117 70.5031 68.1837 71.6048 68.2121 72.0085C68.2557 72.3998 68.3125 73.2254 68.356 73.8176C68.4422 75.1354 68.5293 75.4116 68.8029 75.4116C69.0116 75.4716 69.2006 75.5867 69.3502 75.7448C69.452 75.822 69.532 75.9246 69.5823 76.0424C69.6325 76.1602 69.6513 76.2892 69.6368 76.4166C69.6223 76.5439 69.5749 76.6653 69.4994 76.7686C69.4239 76.8719 69.3228 76.9535 69.2063 77.0055C67.6366 77.2308 66.0461 77.2698 64.4674 77.1217C64.3675 77.0779 64.2789 77.0115 64.2085 76.9279C64.1381 76.8442 64.0878 76.7454 64.0613 76.639C64.0349 76.5327 64.0331 76.4217 64.056 76.3145C64.079 76.2073 64.1261 76.1069 64.1938 76.021C64.4674 75.601 64.9569 75.4125 65.7788 75.4125H66.4122L66.326 74.427C66.2683 73.8909 66.2105 72.1961 66.2105 70.6754C66.1963 69.1396 66.167 67.8798 66.1244 67.8646C66.0808 67.8646 65.8649 67.836 65.6348 67.8065C65.1018 67.7342 64.7126 67.3723 64.7562 66.9667C64.7704 66.7924 64.7998 66.5753 64.8139 66.4906C64.8282 66.3316 64.9579 66.2735 65.7504 66.0145C67.0239 65.8913 68.3069 65.9054 69.5774 66.0564H69.5803ZM63.4259 66.2154C64.2326 66.5344 63.4979 67.6351 62.3456 67.8094C62.0061 67.8588 61.6695 67.9265 61.3372 68.0122C61.1614 68.0728 60.9753 68.0974 60.7899 68.0846C60.7899 68.0408 60.6602 68.0846 60.5059 68.1712C60.2465 68.3159 60.2218 68.4749 60.2218 69.8851C60.2218 70.7421 60.2219 71.5362 60.2076 71.6523C60.2076 71.7685 60.2076 72.1018 60.2218 72.377C60.2232 73.7557 60.1558 75.1336 60.0202 76.5056C59.9918 76.6646 59.9482 76.8389 59.9482 76.897C59.8328 77.0376 59.6844 77.1472 59.5165 77.2159C59.2735 77.3466 58.9892 77.3758 58.725 77.2972C58.4608 77.2186 58.238 77.0386 58.1048 76.796C57.8747 76.1009 57.8747 76.2599 57.975 74.3337C58.0186 73.5367 58.0905 72.0304 58.1332 70.9877C58.1758 69.9451 58.2345 68.9453 58.2771 68.7711C58.3348 68.4521 58.3055 68.4521 57.2971 68.5397C56.0009 68.6406 55.5105 68.5397 55.3665 68.1341C55.1365 67.439 55.5105 66.9457 56.3749 66.7867C57.075 66.6557 57.7818 66.5638 58.492 66.5116C59.0109 66.4535 60.077 66.3373 60.8685 66.2259C61.7102 66.0365 62.5828 66.0332 63.4259 66.2164V66.2154ZM72.6451 66.621C72.8593 67.4386 72.961 68.2819 72.9472 69.1272C73.0049 70.2574 73.0627 71.3001 73.0911 71.4448C73.1346 71.6914 73.3212 73.5167 73.3751 74.3566C73.4035 74.7908 73.6772 75.0516 73.9224 74.8926C74.0237 74.8255 74.1358 74.7765 74.2538 74.7479C74.34 74.7336 74.5994 74.6755 74.8304 74.6317C76.8329 74.2261 77.7656 74.2842 78.0714 74.8345C78.1869 75.0516 78.1433 75.1821 77.8981 75.4716C77.6387 75.7753 77.0337 75.9933 74.8872 76.5865C71.9625 77.4121 71.5449 77.4264 71.2893 76.7456C71.1466 76.4162 71.1063 76.051 71.1738 75.6982C71.1738 75.582 71.1302 74.8288 71.0583 74.0319C71.0005 73.2349 70.9427 71.3372 70.9427 69.8308C70.9427 67.3685 70.9711 67.0353 71.2268 66.6725C71.5004 66.2383 71.9615 65.9774 72.2683 66.0926C72.4338 66.2368 72.5632 66.4182 72.6461 66.622L72.6451 66.621Z" fill="#2C2E3E" />
</g>
<defs>
<clipPath id="clip0_13_3">
<rect width="105" height="85" fill="white" />
</clipPath>
</defs>
</svg></svg></g></svg>
