<svg version="1.2" baseProfile="tiny-ps" xmlns="http://www.w3.org/2000/svg" viewBox="0 0 700 700" width="700" height="700">
	<title>mineinabyss-svg</title>
	<style>
		tspan { white-space:pre }
		.s0 { fill: none;stroke: #ffffff;stroke-linejoin:round;stroke-width: 15 } 
		.s1 { fill: #ff7043 } 
		.s2 { fill: #ffca28 } 
		.s3 { fill: #8d6e63 } 
	</style>
	<g id="Outline">
		<path id="Layer" class="s0" d="m588.32 408.47l40.14 27.02l4.48 44.77l-11.58 16.83l-35.05-0.93l-5.86-14.82l33.65-7.41l-4.94-29.18l-39.37-3.4l-4.05-50.99l-0.58-7.37l58.2-20.38l1.85 43.85l-10.96 0.93l-9.26-19.92l-16.83 0.31l0.1 13.22l0.06 7.47v0z" />
		<path id="Layer" class="s0" d="m472.36 436.98l5.35-59.8l64.02-9.26l-8.54 46.42l-11.74-3.2l-3.71-20.18l-18.11-3.81l-3.81 22.13l34.48 35.1l-0.01 0.1l-5.97 47.45l-15.53 13.49l-36.34-6.69l-5.14-35.52l16.47-3.19l-1.85 22.75l24.7 0.82l3.3-33.24l-0.12-0.05l-37.45-13.34v0z" />
		<path id="Layer" class="s0" d="m403.92 433.69l12.97-72.88l28.61-5.15l-15.23 92.43l-18.69 10.52l-2.51 1.42l0.62 35.82h12.97l-0.21 14.2h-50.02l-3.29-12.14l16.78-4.12l-8.13-39.11l-13.73-8.88l-0.27-0.18l-16.88-79.67l24.09 4.33l20.36 62.1l0.43 1.31h4.55h7.6v0z" />
		<path id="Layer" class="s0" d="m328.94 493.58l0.06 0.64l-79.67 17.29l-10.37-79.67l-0.69-5.25l-4.81-36.96l-20.38 2.06l2.47-12.77l85.02-28.82l5.97 66.49l-29.02 6.38l1.5 0.37l44.37 10.95l5.54 59.28zm-42.88-113.14l1.78 19.68l-30.21 7.73l-1-20.46l29.43-6.95zm-17.64 103.91l-5.18-35.84l-0.69-4.84l29.8-0.46l5.65 29.14l0.99 5.13l-30.57 6.87z" />
		<path id="Layer" class="s0" d="m184.73 501.56l19.31 0.78v16.36h-44.16l-4.79-33.96l-24.94-4.88l-9.8-1.92l-27.94 38.6l-39.68-12.35l5.41-13.9l23.62 3.39l46.64-129.99h55.12l1.21 137.87zm-29.16-50.59l-15.68-3.91l-8.83-2.19l13.9-46.94l9.33 0.67l6.48 0.46l-5.2 51.9z" />
		<path id="Layer" class="s0" d="m680.59 322.53h-18.93l-18.43-40.05l2.36 32.84l-15.75 7.21l0.31-63.92l-8.75-1.96l-0.41-8.12l22.64 1.23l18.43 38.29l2.47-41.37l15.23 1.33l-5.56 64.44l5.76 0.51l0.62 9.58v0z" />
		<path id="Layer" class="s0" d="m602.83 307.34l9.96 3.55l2.08 8.41l-32.12-3.39l-2.94-6.25l8.65-0.85l-3.4-47.17l-11.81 0.85l-1.85-9.96l33.19-8.41l2.47 12.51l-7.64 0.84l3.4 49.87v0z" />
		<path id="Layer" class="s0" d="m508.46 297.23l45.73-4.86l4.63 21.93l-55.41 16.9l-20.55 6.26l-14.98-138.49l25.88 2.41l43.9 4.08l-1.07 24.23l-35.38 0.81l-5.38 0.12l0.77 21.46l9 0.78l24.97 2.16l1.54 18.37l-23.96 1.63l-5.53 0.38l0.77 22.38l5.07-0.54v0z" />
		<path id="Layer" class="s0" d="m360.9 330.14l-24.49-1.85l17.29-114.26l-10.91-3.91l-1.23-13.38l34.58-1.24l28.16 67.84l2.52 6.07l-2.27-58.67l28.61-12.56l-4.73 118.79l14.4 2.46l-3.29 14.21l-34.58-6.38l-13.4-29.63l-17.9-39.59l-12.77 72.11v0z" />
		<path id="Layer" class="s0" d="m290.76 324.69h-67.41l3.81-19.56l17.08 0.72l2.5-28.49v0l6.25-71.25l-17.46-10.81l-1.14-14.3v0l59.9 17.7l2.47 12.25l-15.7 0.41c-2.78 18.62-5.56 37.24-8.34 55.86c-1.81 12.26-3.64 24.52-5.49 36.79l23.57 0.93l-0.04 19.76z" />
		<path id="Layer" class="s0" d="m95.11 348.25l-59.08 1.85l-1.65-12.35l16.5-4.33l-9.47-125.16l-14.82 4.12l-6.59-14.62l55.99-13.17l29.24 54.96l36.03-53.21l35 4.01l2.96 132.57l-32.63 2.78l-0.82-86.33l-31.71 51.02l-45.25-54.15l10.9 96.34l14.62 0.82l0.8 14.82z" />
		<path id="Layer" class="s1" d="m632.94 480.26l-11.58 16.83l-35.05-0.93l-5.86-14.82l33.65-7.41l-4.94-29.18l-39.37-3.4l-4.05-50.99l-0.58-7.37l58.2-20.38l1.85 43.85l-10.96 0.93l-9.26-19.92l-16.83 0.31l0.1 13.22l0.06 7.47l40.14 27.02l4.48 44.77v0z" />
		<path id="Layer" class="s2" d="m625.21 406.46l-10.96 0.93l-9.26-19.92l-16.83 0.31l0.1 13.22l-22.52-10.63l-0.58-7.37l58.2-20.38l1.85 43.85v0z" />
		<path id="Layer" class="s1" d="m499.65 387.16l-3.81 22.13l34.48 35.1l-0.01 0.1l-5.97 47.45l-15.53 13.49l-36.34-6.69l-5.14-35.52l16.47-3.19l-1.85 22.75l24.7 0.82l3.3-33.24l-0.12-0.05l-37.45-13.34l5.35-59.8l64.02-9.26l-8.54 46.42l-11.74-3.2l-3.71-20.18l-18.11-3.81v0z" />
		<path id="Layer" class="s2" d="m530.31 444.49l-5.97 47.45l-15.53 13.49l-36.34-6.69l-5.14-35.52l16.47-3.19l-1.85 22.75l24.7 0.82l3.3-33.24l-0.12-0.05l20.49-5.83v0z" />
		<path id="Layer" class="s1" d="m411.58 458.62l-2.51 1.42l0.62 35.82h12.97l-0.21 14.2h-50.02l-3.29-12.14l16.78-4.12l-8.13-39.11l-13.73-8.88l-0.27-0.18l-16.88-79.67l24.09 4.33l20.36 62.1l0.43 1.31h12.14l12.97-72.88l28.61-5.15l-15.23 92.43l-18.69 10.52v0z" />
		<path id="Layer" class="s3" d="m422.66 495.86l-0.21 14.2h-50.02l-3.29-12.14l16.78-4.12l-8.13-39.11l-13.73-8.88c8.99-4.36 21.49-10.54 27.3-13.41l0.43 1.31h4.55l15.26 24.93l-2.51 1.42l0.62 35.82h12.97z" />
		<path id="Layer" fill-rule="evenodd" class="s2" d="m328.99 494.22l-79.67 17.29l-10.37-79.67l-0.69-5.25l-4.81-36.96l-20.38 2.06l2.47-12.77l85.02-28.82l5.97 66.49l-29.02 6.38l1.5 0.37l44.43 10.93l5.5 59.29l0.04 0.65zm-72.37-106.83l1 20.46l30.25-7.73l-1.78-19.68l-29.47 6.95zm42.36 90.09l-0.99-5.13l-5.65-29.14l-29.8 0.46l0.69 4.84l5.18 35.84l30.57-6.87z" />
		<path id="Layer" class="s1" d="m328.94 493.57l-30.94-21.22l-5.65-29.14l-29.8 0.46l0.69 4.84l-24.28-16.67l-0.69-5.25l40.75-3.24l44.41 10.95l5.5 59.27v0z" />
		<path id="Layer" fill-rule="evenodd" class="s1" d="m204.04 502.34v16.36h-44.16l-4.79-33.96l-24.94-4.88l-9.8-1.92l-27.94 38.6l-39.68-12.35l5.41-13.9l23.62 3.39l46.64-129.99h55.12l1.21 137.87l19.31 0.78zm-43.27-103.27l-6.48-0.46l-9.33-0.67l-13.9 46.94l8.83 2.19l15.66 3.91l5.22-51.9z" />
		<path id="Layer" class="s2" d="m164.67 363.69l-10.38 34.94l-9.33-0.67l-13.9 46.94l8.83 2.19l-9.74 32.77l-9.8-1.92l-27.94 38.6l-39.68-12.35l5.41-13.9l23.62 3.39l46.62-129.99h36.29v0z" />
		<path id="Layer" class="s3" d="m629.84 322.53l0.31-63.92l-8.75-1.96l-0.41-8.12l22.64 1.23l18.43 38.29l2.47-41.37l15.23 1.33l-5.56 64.44l5.76 0.51l0.62 9.58h-18.93l-18.43-40.05l2.36 32.84l-15.75 7.21v0z" />
		<path id="Layer" class="s3" d="m582.76 315.91l-2.94-6.25l8.65-0.85l-3.4-47.17l-11.81 0.85l-1.85-9.96l33.19-8.41l2.47 12.51l-7.64 0.84l3.4 49.87l9.96 3.55l2.08 8.41l-32.12-3.39v0z" />
		<path id="Layer" class="s1" d="m558.83 314.29l-55.41 16.9l-20.55 6.26l-14.98-138.49l25.88 2.41l43.9 4.08l-1.07 24.23l-35.38 0.81l-5.38 0.12l0.77 21.46l9 0.78l24.97 2.16l1.54 18.37l-23.96 1.63l-5.53 0.38l0.77 22.38l5.07-0.54l45.73-4.86l4.63 21.93v0z" />
		<path id="Layer" class="s2" d="m508.46 297.23l-5.05 33.96l-20.55 6.26l-14.98-138.49l25.88 2.41l7.45 29.12l-5.38 0.12l0.77 21.46l9 0.78l2.55 22.16l-5.53 0.38l0.77 22.38l5.07-0.54v0z" />
		<path id="Layer" class="s2" d="m442.82 319.43l-3.29 14.21l-34.58-6.38l-13.4-29.63l-17.9-39.59l-12.77 72.11l-24.49-1.85l17.29-114.26l-10.91-3.91l-1.23-13.38l34.58-1.24l28.16 67.84l2.52 6.07l-2.27-58.67l28.61-12.56l-4.73 118.79l14.4 2.46v0z" />
		<path id="Layer" class="s1" d="m404.29 263.34l-12.73 34.28l-17.9-39.59l-12.77 72.11l-24.49-1.85l17.29-114.26l-10.91-3.91l-1.23-13.38l34.58-1.24l28.16 67.84v0z" />
		<path id="Layer" class="s1" d="m267.23 304l23.57 0.93v19.76h-67.45l3.81-19.56l17.08 0.72l2.5-28.49l6.25-71.25l-17.5-10.81l-1.14-14.3l59.91 17.7l2.47 12.25l-15.7 0.41c-2.78 18.62-5.56 37.24-8.34 55.86c-1.82 12.26-3.64 24.52-5.47 36.79z" />
		<path id="Layer" class="s3" d="m296.78 210.95l-15.7 0.41c-2.78 18.62-5.56 37.24-8.34 55.86l-25.94 10.19l6.2-71.29l-17.5-10.81l-1.14-14.3l59.91 17.7l2.51 12.25z" />
		<path id="Layer" class="s1" d="m36.05 350.11l-1.65-12.35l16.47-4.33l-9.47-125.16l-14.82 4.12l-6.59-14.62l55.99-13.17l29.24 54.96l8.85 50.85l-45.28-54.15l10.9 96.34l14.62 0.82l0.82 14.82l-59.08 1.85v0z" />
		<path id="Layer" class="s1" d="m145.78 239.39c10.15-16.34 20.31-32.68 30.47-49.02l2.98 132.57l-32.63 2.78c-0.27-28.78-0.55-57.55-0.82-86.33z" />
		<path id="Layer" class="s2" d="m141.25 186.35l35 4.01l-62.18 100.05l-8.85-50.85l36.03-53.21v0z" />
	</g>
</svg>